<svg width="24" height="24" viewBox="0 0 24 24" fill="none" xmlns="http://www.w3.org/2000/svg">
<g clip-path="url(#clip0_3111_1584)">
<path d="M10.9316 12.2012V8.29395H2.39525V12.2012C0.867883 13.4788 0 15.3317 0 17.333C0 20.7313 2.53242 23.5915 5.88789 23.9812L6.04089 22.6637C3.35019 22.3509 1.31897 20.058 1.31897 17.3304C1.31897 15.6366 2.09716 14.0753 3.45043 13.0468L3.71158 12.848V9.61668H9.61002V12.848L9.87118 13.0468C11.2271 14.0753 12.0026 15.6366 12.0026 17.3304C12.0026 20.1243 9.91866 22.4225 7.1541 22.677L7.27544 23.9971C10.7232 23.679 13.3242 20.8135 13.3242 17.3304C13.3242 15.3291 12.4564 13.4762 10.929 12.1985L10.9316 12.2012Z" fill="#B5B5B5"/>
<path d="M7.11457 20.4615L7.31769 21.7709C9.3832 21.4449 10.8842 19.6848 10.8842 17.5827C10.8842 15.2421 8.99015 13.3389 6.66085 13.3389C4.33154 13.3389 2.4375 15.2421 2.4375 17.5827C2.4375 19.6 3.86463 21.3495 5.83253 21.7444L6.08841 20.4456C4.73515 20.1752 3.75383 18.9717 3.75383 17.5854C3.75383 15.9764 5.05698 14.6669 6.65821 14.6669C8.25944 14.6669 9.56258 15.9764 9.56258 17.5854C9.56258 19.0301 8.53115 20.2388 7.11193 20.4641L7.11457 20.4615Z" fill="#B5B5B5"/>
<path d="M8.58371 11.3004C8.58371 10.9955 8.33838 10.749 8.03502 10.749C7.73166 10.749 7.48633 10.9955 7.48633 11.3004C7.48633 11.6052 7.73166 11.8517 8.03502 11.8517C8.33838 11.8517 8.58371 11.6052 8.58371 11.3004Z" fill="#B5B5B5"/>
<path d="M17.3647 12.0664C15.6791 12.0664 14.1253 11.2845 13.1018 9.92462L12.904 9.66219H11.9121V10.9876H12.2577C13.5292 12.5197 15.3731 13.3945 17.3647 13.3945C20.7466 13.3945 23.5929 10.8497 23.9807 7.47796L22.6696 7.32422C22.3584 10.028 20.0765 12.0691 17.3621 12.0691L17.3647 12.0664Z" fill="#B5B5B5"/>
<path d="M9.69006 3.73227H12.9057L13.1036 3.46985C14.1271 2.10736 15.6808 1.32803 17.3665 1.32803C20.1469 1.32803 22.434 3.42213 22.6872 6.20013L24.0009 6.0782C23.6843 2.61365 20.8327 0 17.3665 0C15.3748 0 13.5309 0.872101 12.2594 2.40689H8.37109V7.23658H9.69006V3.73227Z" fill="#B5B5B5"/>
<path d="M17.6159 3.77753C19.0536 3.77753 20.2565 4.81398 20.4807 6.24009L21.7839 6.03598C21.4594 3.96043 19.7078 2.45215 17.6159 2.45215C15.2866 2.45215 13.3926 4.3554 13.3926 6.69602C13.3926 9.03664 15.2866 10.9399 17.6159 10.9399C19.6234 10.9399 21.3644 9.50583 21.7575 7.52836L20.4649 7.27123C20.1958 8.62842 18.9982 9.61716 17.6186 9.61716C16.0173 9.61716 14.7142 8.30768 14.7142 6.69867C14.7142 5.08966 16.0173 3.78018 17.6186 3.78018L17.6159 3.77753Z" fill="#B5B5B5"/>
<path d="M10.8125 5.31698C10.8125 5.62182 11.0578 5.86834 11.3612 5.86834C11.6646 5.86834 11.9099 5.62182 11.9099 5.31698C11.9099 5.01215 11.6646 4.76562 11.3612 4.76562C11.0578 4.76562 10.8125 5.01215 10.8125 5.31698Z" fill="#B5B5B5"/>
<path d="M6.79568 3.11151V1.78613C4.1551 1.78613 2.00781 3.9465 2.00781 6.59992H3.32678C3.32678 4.67811 4.88317 3.11416 6.79568 3.11416V3.11151Z" fill="#B5B5B5"/>
</g>
<defs>
<clipPath id="clip0_3111_1584">
<rect width="24" height="24" fill="white"/>
</clipPath>
</defs>
</svg>
