<svg width="22" height="23" viewBox="0 0 22 23" fill="none" xmlns="http://www.w3.org/2000/svg">
<g clip-path="url(#clip0_3111_2453)">
<path d="M16.2684 17.4215H11.9344V6.64648H10.684V17.4215H7.17026V19.2112H3.66406V22.9973H19.2719V19.2112H16.2659V17.4215H16.2684ZM18.024 20.4421V21.7665H4.91449V20.4421H8.42068V18.6524H15.0179V19.2112H11.4042V20.4421H18.0215H18.024Z" fill="#B5B5B5"/>
<path d="M19.104 5.96993H19.1215V2.33887H2.921V5.98224L0 11.5753V11.723C0 13.6235 1.57054 15.1694 3.50119 15.1694C5.43185 15.1694 7.00239 13.6235 7.00239 11.723V11.5753L4.17142 6.1521V4.93354L9.77083 6.01916L12.8894 6.03147L17.8736 4.95077V5.96993H17.8911L14.9976 11.5138V11.6615C14.9976 13.5619 16.5681 15.1079 18.4988 15.1079C20.4295 15.1079 22 13.5619 22 11.6615V11.5138L19.1065 5.96993H19.104ZM3.50119 7.56267L5.35182 11.11H1.65056L3.50119 7.56267ZM3.50119 13.9386C2.47834 13.9386 1.61305 13.2616 1.34046 12.3384H5.66193C5.38934 13.2616 4.52654 13.9386 3.50119 13.9386ZM12.7543 4.8006H9.95339L4.17142 3.67805V3.56974H17.8736V3.69036L12.7543 4.8006ZM18.4988 7.50113L20.3494 11.0485H16.6457L18.4963 7.50113H18.4988ZM18.4988 13.8795C17.476 13.8795 16.6107 13.2025 16.3381 12.2794H20.6595C20.387 13.2025 19.5242 13.8795 18.4988 13.8795Z" fill="#B5B5B5"/>
<path d="M12.0297 0H10.7793V1.72322H12.0297V0Z" fill="#B5B5B5"/>
</g>
<defs>
<clipPath id="clip0_3111_2453">
<rect width="22" height="23" fill="white"/>
</clipPath>
</defs>
</svg>
