<svg width="25" height="22" viewBox="0 0 25 22" fill="none" xmlns="http://www.w3.org/2000/svg">
<g clip-path="url(#clip0_3111_2434)">
<path d="M10.9424 5.6646L13.045 10.9529L13.0582 13.4879C13.0582 13.7062 13.1697 13.906 13.3502 14.0296C13.4618 14.1033 13.5918 14.1427 13.7219 14.1427C13.8042 14.1427 13.8865 14.1269 13.9662 14.098L20.8818 11.4C21.0863 11.3211 21.2376 11.1475 21.2854 10.9345C21.3332 10.7241 21.2747 10.5006 21.1261 10.3428L19.3925 8.47837L17.2899 3.19006L17.2767 0.655035C17.2767 0.439401 17.1652 0.236914 16.9846 0.113319C16.8041 -0.00764687 16.5731 -0.0339438 16.3687 0.044947L9.45304 2.74301C9.24863 2.8219 9.0973 2.99546 9.04952 3.20847C9.00173 3.41884 9.06014 3.64236 9.2088 3.80015L10.9424 5.6646ZM19.4934 10.5269L14.3803 12.5228L14.3723 11.2869L18.6465 9.61965L19.4934 10.5295V10.5269ZM17.9642 8.47048L14.0856 9.98255L12.3574 5.64093L16.236 4.12886L17.9642 8.47048ZM15.9519 1.62013L15.9599 2.8219L11.6618 4.49964L10.8388 3.61607L15.9519 1.62013Z" fill="#B5B5B5"/>
<path d="M11.4493 9.19848L2.76554 12.8222C2.1921 13.0457 1.57089 12.8459 1.3824 12.3725C1.29745 12.1569 1.31337 11.9123 1.43018 11.6809C1.56027 11.4258 1.79123 11.2233 2.06998 11.1129L10.9316 7.89153L10.475 6.6582L1.59744 9.88483C1.00277 10.1162 0.522252 10.5449 0.243501 11.0892C-0.0458695 11.6572 -0.0803815 12.2857 0.145274 12.8538C0.485085 13.7084 1.34789 14.2238 2.29033 14.2238C2.61156 14.2238 2.94075 14.1633 3.26463 14.0371L11.9643 10.4081L11.4493 9.19586V9.19848Z" fill="#B5B5B5"/>
<path d="M23.4438 17.7927C23.3509 17.5297 23.0987 17.3535 22.8173 17.3535H11.2637C10.9823 17.3535 10.7327 17.5297 10.6372 17.7927L9.44783 21.1245C9.37615 21.327 9.40801 21.5479 9.53278 21.7241C9.65755 21.8976 9.85932 22.0028 10.0744 22.0028H24.0066C24.2216 22.0028 24.4234 21.9003 24.5482 21.7241C24.673 21.5505 24.7048 21.327 24.6331 21.1245L23.4438 17.7927ZM11.0115 20.6853L11.7309 18.6684H22.3474L23.0668 20.6853H11.0115Z" fill="#B5B5B5"/>
<path d="M24.5981 8.92503L22.3574 9.63379L22.7612 10.8863L25.0019 10.1776L24.5981 8.92503Z" fill="#B5B5B5"/>
<path d="M22.2614 11.8375L21.6621 13.0107L23.6495 14.0069L24.2488 12.8337L22.2614 11.8375Z" fill="#B5B5B5"/>
<path d="M22.0905 6.19692L21.0332 7.99414L22.1801 8.65613L23.2373 6.85891L22.0905 6.19692Z" fill="#B5B5B5"/>
</g>
<defs>
<clipPath id="clip0_3111_2434">
<rect width="25" height="22" fill="white"/>
</clipPath>
</defs>
</svg>
