<svg width="21" height="21" viewBox="0 0 21 21" fill="none" xmlns="http://www.w3.org/2000/svg">
<path d="M11.632 3.46501C12.0185 3.07231 12.4789 2.76 12.9867 2.54611C13.4945 2.33222 14.0397 2.22097 14.5907 2.21878C15.1417 2.21659 15.6877 2.32351 16.1971 2.53336C16.7066 2.74321 17.1695 3.05185 17.5592 3.44147C17.9488 3.83109 18.2574 4.29399 18.4673 4.80348C18.6771 5.31296 18.784 5.85895 18.7818 6.40996C18.7797 6.96096 18.6684 7.50608 18.4545 8.01389C18.2406 8.52169 17.9283 8.98212 17.5356 9.36864L14.8844 12.0199L13.6462 10.7835L16.2975 8.13139C16.7523 7.67677 17.008 7.06009 17.0081 6.41701C17.0083 5.77392 16.753 5.15711 16.2984 4.70226C15.8438 4.24742 15.2271 3.99179 14.584 3.99163C13.9409 3.99147 13.3241 4.24677 12.8692 4.70139L10.2171 7.35351L8.97987 6.11626L11.632 3.46501ZM13.487 8.75001L8.74887 13.4873L7.51161 12.25L12.2489 7.51276L13.487 8.75001ZM7.35324 10.2165L4.70199 12.8686C4.24714 13.3235 3.99161 13.9404 3.99161 14.5836C3.99161 15.2269 4.24714 15.8438 4.70199 16.2986C5.15684 16.7535 5.77374 17.009 6.41699 17.009C7.06024 17.009 7.67714 16.7535 8.13199 16.2986L10.7832 13.6465L12.0205 14.8838L9.36924 17.535C8.58637 18.318 7.52453 18.7579 6.4173 18.758C5.31007 18.7581 4.24816 18.3183 3.46518 17.5355C2.68219 16.7526 2.24227 15.6907 2.24219 14.5835C2.24211 13.4763 2.68187 12.4144 3.46474 11.6314L6.11599 8.98014L7.35324 10.2165Z" fill="white"/>
</svg>
