<svg width="45" height="45" viewBox="0 0 45 45" fill="none" xmlns="http://www.w3.org/2000/svg">
<path d="M7.19981 22.5002C7.19981 14.0402 14.0398 7.20019 22.4998 7.20019C30.9598 7.2002 37.7998 14.0402 37.7998 22.5002C37.7998 30.9602 30.9598 37.8002 22.4998 37.8002C14.0398 37.8002 7.19981 30.9602 7.19981 22.5002ZM35.9998 22.5002C35.9998 15.0302 29.9698 9.0002 22.4998 9.00019C15.0298 9.00019 8.99981 15.0302 8.99981 22.5002C8.99981 29.9702 15.0298 36.0002 22.4998 36.0002C29.9698 36.0002 35.9998 29.9702 35.9998 22.5002Z" fill="#717171"/>
<path d="M20.97 29.9695L28.44 22.4995L20.97 15.0295L22.23 13.7695L30.96 22.4995L22.23 31.2295L20.97 29.9695Z" fill="#717171"/>
<path d="M29.7002 21.5996L29.7002 23.3996L14.4002 23.3996L14.4002 21.5996L29.7002 21.5996Z" fill="#717171"/>
</svg>
