<svg width="124" height="74" viewBox="0 0 124 74" fill="none" xmlns="http://www.w3.org/2000/svg">
<g id="B" clip-path="url(#clip0_6562_1678)">
<g id="Group">
<path id="Vector" d="M79.3902 17.4779H80.345V0H41.1611V0.75991C43.8133 0.75991 45.9653 2.91805 45.9653 5.57774V33.74C45.9653 36.3997 43.8133 38.5578 41.1611 38.5578V39.3177H80.345V21.8398H79.3902C79.2841 30.8067 72.002 38.0487 63.0377 38.0487H59.4914C57.6121 38.0487 56.0814 36.5213 56.0814 34.6291V4.68104C56.0814 2.79647 57.6045 1.26145 59.4914 1.26145H63.0377C72.0096 1.26145 79.2841 8.50339 79.3902 17.4703V17.4779ZM48.9888 34.8571H47.4202V4.46827H48.9888V34.8571ZM51.7622 34.8571H50.1936V4.46827H51.7622V34.8571ZM54.5356 34.8571H52.967V4.46827H54.5356V34.8571Z" fill="#191919"/>
<path id="Vector_2" d="M68.782 17.9786C68.0015 18.6169 67.024 18.9512 66.0162 18.9512H63.3867V20.3571H66.0162C67.024 20.3571 68.0015 20.6914 68.782 21.3298C70.3884 22.652 71.4266 24.6354 71.472 26.8771H72.8739V12.416H71.472C71.4341 14.6577 70.3884 16.6487 68.782 17.9634V17.9786Z" fill="#191919"/>
</g>
<g id="Group_2">
<g id="Group_3">
<path id="Vector_3" d="M78.7167 54.1215C79.3077 52.9816 80.0958 52.1153 81.0733 51.5226C82.0508 50.9299 83.1192 50.6411 84.271 50.6411C85.4228 50.6411 86.4913 50.9375 87.4688 51.5226C88.4463 52.1153 89.2344 52.9816 89.8254 54.1215C90.4165 55.2614 90.712 56.6216 90.712 58.187C90.712 59.7524 90.4165 61.1127 89.8254 62.2525C89.2344 63.4 88.4463 64.2587 87.4688 64.8514C86.4913 65.4441 85.4228 65.7329 84.271 65.7329C83.1192 65.7329 82.0508 65.4365 81.0733 64.8514C80.0958 64.2587 79.3077 63.3924 78.7167 62.2525C78.1256 61.1127 77.8301 59.7524 77.8301 58.187C77.8301 56.6216 78.1256 55.2614 78.7167 54.1215ZM81.8311 62.6705C82.4676 63.7192 83.2784 64.2435 84.2635 64.2435C85.2486 64.2435 86.0594 63.7192 86.6959 62.6705C87.3324 61.6218 87.6507 60.1248 87.6507 58.187C87.6507 56.2492 87.3324 54.7598 86.6959 53.7035C86.0594 52.6473 85.2486 52.1305 84.2635 52.1305C83.2784 52.1305 82.4676 52.6549 81.8311 53.7035C81.1945 54.7522 80.8763 56.2492 80.8763 58.187C80.8763 60.1248 81.1945 61.6142 81.8311 62.6705ZM93.0459 47.8142H96.9105C97.0924 47.8142 97.1833 47.8826 97.1833 48.0042V70.9307C97.1833 71.2802 97.1227 71.6526 97.009 72.0402C96.8953 72.4277 96.7211 72.7469 96.5089 73.0052H94.1295V49.6912C94.1295 49.1973 94.0462 48.8325 93.8946 48.5969C93.7355 48.369 93.4551 48.1866 93.0535 48.0574V47.8066L93.0459 47.8142Z" fill="#191919"/>
<path id="Vector_4" d="M102.139 61.2874H124V62.944H102.139V61.2874ZM105.799 57.7158V51.2186C105.799 50.7246 105.723 50.3599 105.564 50.1243C105.405 49.8963 105.124 49.7139 104.723 49.5848V49.334H120.643V49.9115L119.863 50.9906L108.852 50.8766V56.6291H120.711V57.9286L119.885 58.2857H108.178L105.799 57.7082V57.7158ZM104.844 65.4061H108.708C108.89 65.4061 108.981 65.4745 108.981 65.6037V71.5765H121.219V72.876L120.393 73.2331H108.307L105.927 72.6556V67.2907C105.927 66.7967 105.844 66.432 105.693 66.1964C105.533 65.9684 105.253 65.786 104.851 65.6568V65.4061H104.844Z" fill="#191919"/>
</g>
<g id="Group_4">
<g id="Group_5">
<path id="Vector_5" d="M0 49.4556H2.84918C2.98558 49.4556 3.05378 49.5012 3.05378 49.5848V52.0849H7.31997V50.5803C7.31997 50.2459 7.25935 49.9951 7.14569 49.8356C7.02444 49.676 6.81985 49.5544 6.51674 49.4708V49.3036H9.36592C9.50232 49.3036 9.57052 49.3492 9.57052 49.4328V52.7916H12.7152V49.638C12.7152 49.3036 12.6546 49.0528 12.5409 48.8933C12.4197 48.7337 12.2151 48.6121 11.912 48.5285V48.3613H14.7991C14.9355 48.3613 15.0037 48.4069 15.0037 48.4905V56.3936C15.0037 56.6291 14.9582 56.8799 14.8748 57.1459C14.7839 57.4118 14.6627 57.6246 14.5035 57.7994H12.7228V53.8023H9.5781V56.8647L8.95673 57.1079H2.58396L0.803227 56.7127V50.7246C0.803227 50.3903 0.742606 50.1395 0.628942 49.9799C0.5077 49.8204 0.303104 49.6988 0 49.6152V49.448L0 49.4556ZM7.31997 53.1336H3.05378V56.0288H7.31997V53.1336ZM3.1826 58.9165H6.06967C6.20606 58.9165 6.27426 58.9621 6.27426 59.0457V61.1658H12.6395V60.0791C12.6395 59.7448 12.5788 59.494 12.4652 59.3344C12.3439 59.1748 12.1393 59.0533 11.8362 58.9697V58.8025H14.7233C14.8597 58.8025 14.9279 58.8481 14.9279 58.9317V65.3757L14.3065 65.6189H5.76656L3.98582 65.2237V60.1931C3.98582 59.8588 3.9252 59.608 3.81154 59.4484C3.6903 59.2888 3.4857 59.1672 3.1826 59.0837V58.9165ZM12.6395 64.4942V62.2221H6.27426V64.4942H12.6395Z" fill="#191919"/>
<path id="Vector_6" d="M18.5654 58.5974H34.8952V59.7601H27.8707V63.9852C27.8707 64.2207 27.8253 64.4715 27.7419 64.7375C27.651 65.0034 27.5297 65.2162 27.3706 65.391H25.5899V59.7601H18.5654V58.5974ZM20.4144 49.5469H32.3415C32.4779 49.5469 32.5461 49.5925 32.5461 49.6761V56.0441L31.9248 56.2873H22.9908L21.21 55.8921V50.8235C21.21 50.4892 21.1494 50.2384 21.0357 50.0788C20.9145 49.9192 20.7099 49.7976 20.4068 49.7141V49.5469H20.4144ZM23.506 50.6031V55.2006H30.2653V50.6031H23.506Z" fill="#191919"/>
<path id="Vector_7" d="M37.9482 49.4556H40.7974C40.9338 49.4556 41.002 49.5012 41.002 49.5848V52.0849H45.2682V50.5803C45.2682 50.2459 45.2076 49.9951 45.0939 49.8356C44.9727 49.676 44.7681 49.5544 44.465 49.4708V49.3036H47.3142C47.4506 49.3036 47.5188 49.3492 47.5188 49.4328V52.7916H50.6635V49.638C50.6635 49.3036 50.6028 49.0528 50.4892 48.8933C50.3679 48.7337 50.1633 48.6121 49.8602 48.5285V48.3613H52.7473C52.8837 48.3613 52.9519 48.4069 52.9519 48.4905V56.3936C52.9519 56.6291 52.9064 56.8799 52.8231 57.1459C52.7322 57.4118 52.6109 57.6246 52.4518 57.7994H50.671V53.8023H47.5263V56.8647L46.905 57.1079H40.5398L38.759 56.7127V50.7246C38.759 50.3903 38.6984 50.1395 38.5848 49.9799C38.4635 49.8204 38.2589 49.6988 37.9558 49.6152V49.448L37.9482 49.4556ZM45.2758 53.1336H41.0096V56.0288H45.2758V53.1336ZM41.1308 58.9165H44.0179C44.1543 58.9165 44.2225 58.9621 44.2225 59.0457V61.1658H50.5877V60.0791C50.5877 59.7448 50.5271 59.494 50.4134 59.3344C50.2922 59.1748 50.0876 59.0533 49.7845 58.9697V58.8025H52.6715C52.8079 58.8025 52.8761 58.8481 52.8761 58.9317V65.3757L52.2548 65.6189H43.7148L41.9341 65.2237V60.1931C41.9341 59.8588 41.8734 59.608 41.7598 59.4484C41.6385 59.2888 41.4339 59.1672 41.1308 59.0837V58.9165ZM50.5877 64.4942V62.2221H44.2225V64.4942H50.5877Z" fill="#191919"/>
<path id="Vector_8" d="M58.1356 51.3096C58.5751 50.6864 59.1661 50.2077 59.9087 49.8733C60.6438 49.539 61.4394 49.3794 62.2881 49.3794C63.1368 49.3794 63.9325 49.5466 64.6675 49.8733C65.4025 50.2077 65.9936 50.6864 66.4406 51.3096C66.8801 51.9327 67.1075 52.6774 67.1075 53.5437C67.1075 54.41 66.8877 55.1547 66.4406 55.7778C66.0011 56.401 65.4101 56.8797 64.6675 57.2141C63.9325 57.5484 63.1368 57.708 62.2881 57.708C61.4394 57.708 60.6438 57.5408 59.9087 57.2141C59.1737 56.8797 58.5827 56.401 58.1356 55.7778C57.6961 55.1547 57.4688 54.41 57.4688 53.5437C57.4688 52.6774 57.6885 51.9327 58.1356 51.3096ZM60.4695 55.8766C60.9469 56.4314 61.5455 56.7049 62.2881 56.7049C63.0307 56.7049 63.6293 56.4314 64.1067 55.8766C64.5841 55.3295 64.819 54.5468 64.819 53.5513C64.819 52.5558 64.5841 51.7731 64.1067 51.226C63.6293 50.6788 63.0231 50.3977 62.2881 50.3977C61.5531 50.3977 60.9469 50.6712 60.4695 51.226C59.9921 51.7807 59.7572 52.5558 59.7572 53.5513C59.7572 54.5468 59.9921 55.3295 60.4695 55.8766ZM60.1133 59.6686H63.0004C63.1368 59.6686 63.205 59.7142 63.205 59.7978V64.342H72.533V65.2235L71.9117 65.4667H62.6973L60.9166 65.0715V60.9376C60.9166 60.6033 60.8559 60.3525 60.7423 60.1929C60.621 60.0333 60.4164 59.9117 60.1133 59.8282V59.661V59.6686ZM68.8352 48.3611H71.7222C71.8586 48.3611 71.9268 48.4067 71.9268 48.4903V59.737C71.9268 59.9725 71.8814 60.2233 71.798 60.4893C71.7071 60.7552 71.5858 60.968 71.4267 61.1428H69.646V49.6302C69.646 49.2958 69.5854 49.045 69.4717 48.8855C69.3504 48.7259 69.1458 48.6043 68.8427 48.5207V48.3535L68.8352 48.3611Z" fill="#191919"/>
</g>
<g id="Group_6">
<path id="Vector_9" d="M5.41033 68.4395V69.0854H2.35655V70.8408H5.183V71.4867H2.35655V73.3637H5.47095V74.0096H1.66699V68.4395H5.41033Z" fill="#191919"/>
<path id="Vector_10" d="M9.54819 68.4395C10.1468 68.4395 10.6621 68.5534 11.0864 68.789C11.5184 69.0246 11.8442 69.3437 12.0715 69.7693C12.2989 70.1872 12.4125 70.6736 12.4125 71.2359C12.4125 71.7983 12.2989 72.277 12.0715 72.695C11.8442 73.1129 11.5184 73.4397 11.0864 73.6676C10.6545 73.8956 10.1392 74.0172 9.54061 74.0172H7.66895V68.4471H9.54061L9.54819 68.4395ZM11.1471 72.7861C11.5259 72.4138 11.723 71.897 11.723 71.2207C11.723 70.5444 11.5335 70.0277 11.1471 69.6477C10.7606 69.2678 10.2378 69.0854 9.56335 69.0854H8.36609V73.3409H9.56335C10.2378 73.3409 10.7606 73.1585 11.1471 72.7861Z" fill="#191919"/>
<path id="Vector_11" d="M18.3908 68.4395V69.0854H15.337V70.8408H18.1635V71.4867H15.337V73.3637H18.4514V74.0096H14.6475V68.4395H18.3908Z" fill="#191919"/>
<path id="Vector_12" d="M21.3003 68.4386L24.4905 72.7777V68.4082H25.1877V73.9783H24.536L21.3458 69.6393V74.0087H20.6562V68.4386H21.3003Z" fill="#191919"/>
<path id="Vector_13" d="M30.4921 73.3407H33.3867V74.0018H29.7949V68.4316H30.4845V73.3407H30.4921Z" fill="#191919"/>
<path id="Vector_14" d="M38.9868 72.6263H36.4483L35.9179 74.0018H35.1904L37.3652 68.4316H38.0927L40.2599 74.0018H39.5021L38.9717 72.6263H38.9868ZM38.7368 71.9804L37.7138 69.2903L36.6832 71.9804H38.7292H38.7368Z" fill="#191919"/>
<path id="Vector_15" d="M48.33 68.4395L46.7236 74.0096H46.0264L44.7534 69.5717L43.4728 74.0096H42.7756L41.1768 68.4395H41.8966L43.1469 72.9001L44.3897 68.4395H45.1247L46.375 72.9153L47.6253 68.4395H48.3224H48.33Z" fill="#191919"/>
<path id="Vector_16" d="M54.0587 68.4395V69.093H51.0655V70.9927H53.7707V71.6387H51.0655V74.0096H50.376V68.4395H54.0663H54.0587Z" fill="#191919"/>
<path id="Vector_17" d="M56.8097 74.0018H56.1201V68.4316H56.8097V74.0018Z" fill="#191919"/>
<path id="Vector_18" d="M62.7276 74.0018L61.5304 72.0184C61.4015 72.026 61.303 72.0336 61.2348 72.0336H59.9542V74.0018H59.2646V68.4316H61.2424C61.6819 68.4316 62.0608 68.5076 62.379 68.652C62.6973 68.7964 62.9398 69.0092 63.1065 69.2751C63.2732 69.5487 63.3566 69.8679 63.3566 70.2326C63.3566 70.6278 63.2581 70.9621 63.0686 71.2509C62.8792 71.5397 62.5988 71.7448 62.2351 71.874L63.5612 74.0018H62.7428H62.7276ZM62.2654 71.0913C62.523 70.8937 62.6518 70.6126 62.6518 70.2402C62.6518 69.8679 62.523 69.5867 62.2654 69.3891C62.0077 69.1915 61.644 69.0928 61.1818 69.0928H59.9542V71.3877H61.1818C61.644 71.3877 62.0077 71.2889 62.2654 71.0913Z" fill="#191919"/>
<path id="Vector_19" d="M66.2053 68.4395L68.2437 72.2238L70.2821 68.4395H70.8883V74.0096H70.1987V69.8985L68.5013 73.0673H68.0012L66.3038 69.8985V74.0096H65.6143V68.4395H66.2205H66.2053Z" fill="#191919"/>
</g>
</g>
</g>
</g>
<defs>
<clipPath id="clip0_6562_1678">
<rect width="124" height="74" fill="white"/>
</clipPath>
</defs>
</svg>
