<svg width="36" height="36" viewBox="0 0 36 36" fill="none" xmlns="http://www.w3.org/2000/svg">
<path d="M5.76023 17.9312C5.76023 11.1892 11.2322 5.73828 18.0002 5.73828C24.7682 5.73828 30.2402 11.1892 30.2402 17.9312C30.2402 24.6731 24.7682 30.1241 18.0002 30.1241C11.2322 30.1241 5.76023 24.6731 5.76023 17.9312ZM28.8002 17.9312C28.8002 11.9782 23.9762 7.17274 18.0002 7.17274C12.0242 7.17274 7.20024 11.9782 7.20023 17.9312C7.20023 23.8842 12.0242 28.6896 18.0002 28.6896C23.9762 28.6896 28.8002 23.8842 28.8002 17.9312Z" fill="white"/>
<path d="M16.7756 23.8838L22.7516 17.9308L16.7756 11.9778L17.7836 10.9736L24.7676 17.9308L17.7836 24.8879L16.7756 23.8838Z" fill="white"/>
<path d="M23.7598 17.2139L23.7598 18.6483L11.5198 18.6483L11.5198 17.2139L23.7598 17.2139Z" fill="white"/>
</svg>
